<svg width="402" height="70" viewBox="0 0 402 70" fill="none" xmlns="http://www.w3.org/2000/svg">
<g filter="url(#filter0_i_370_16)">
<g filter="url(#filter1_i_370_16)">
<rect width="402" height="70" rx="20" fill="#171717"/>
</g>
<rect x="0.5" y="0.5" width="401" height="69" rx="19.5" stroke="#171717"/>
</g>
<path d="M35.1548 31.6378C35.098 31.0649 34.8542 30.6198 34.4233 30.3026C33.9924 29.9853 33.4077 29.8267 32.669 29.8267C32.1671 29.8267 31.7434 29.8977 31.3977 30.0398C31.0521 30.1771 30.7869 30.3688 30.6023 30.6151C30.4223 30.8613 30.3324 31.1406 30.3324 31.4531C30.3229 31.7135 30.3774 31.9408 30.4957 32.1349C30.6188 32.3291 30.7869 32.4972 31 32.6392C31.2131 32.7765 31.4593 32.8973 31.7386 33.0014C32.018 33.1009 32.3163 33.1861 32.6335 33.2571L33.9403 33.5696C34.5748 33.7116 35.1572 33.901 35.6875 34.1378C36.2178 34.3745 36.6771 34.6657 37.0653 35.0114C37.4536 35.357 37.7543 35.7642 37.9673 36.233C38.1851 36.7017 38.2964 37.2391 38.3011 37.8452C38.2964 38.7353 38.0691 39.5071 37.6193 40.1605C37.1742 40.8092 36.5303 41.3134 35.6875 41.6733C34.8494 42.0284 33.8385 42.206 32.6548 42.206C31.4806 42.206 30.4579 42.026 29.5866 41.6662C28.7202 41.3063 28.0431 40.7737 27.5554 40.0682C27.0724 39.358 26.8191 38.4796 26.7955 37.4332H29.7713C29.8045 37.9209 29.9441 38.3281 30.1903 38.6548C30.4413 38.9768 30.7751 39.2206 31.1918 39.3864C31.6132 39.5473 32.089 39.6278 32.6193 39.6278C33.1402 39.6278 33.5923 39.5521 33.9759 39.4006C34.3641 39.2491 34.6648 39.0384 34.8778 38.7685C35.0909 38.4986 35.1974 38.1884 35.1974 37.8381C35.1974 37.5114 35.1004 37.2367 34.9062 37.0142C34.7169 36.7917 34.4375 36.6023 34.0682 36.446C33.7036 36.2898 33.2562 36.1477 32.7259 36.0199L31.142 35.6222C29.9157 35.3239 28.9474 34.8575 28.2372 34.223C27.527 33.5885 27.1742 32.7339 27.179 31.6591C27.1742 30.7784 27.4086 30.009 27.8821 29.3509C28.3603 28.6927 29.0161 28.179 29.8494 27.8097C30.6828 27.4403 31.6297 27.2557 32.6903 27.2557C33.7699 27.2557 34.7121 27.4403 35.517 27.8097C36.3267 28.179 36.9564 28.6927 37.4062 29.3509C37.8561 30.009 38.0881 30.7713 38.1023 31.6378H35.1548ZM45.2418 42.2131C44.1244 42.2131 43.1632 41.9763 42.3583 41.5028C41.5581 41.0246 40.9426 40.3617 40.5117 39.5142C40.0856 38.6667 39.8725 37.6913 39.8725 36.5881C39.8725 35.4706 40.0879 34.4905 40.5188 33.6477C40.9544 32.8002 41.5723 32.1397 42.3725 31.6662C43.1727 31.188 44.1244 30.9489 45.2276 30.9489C46.1793 30.9489 47.0127 31.1217 47.7276 31.4673C48.4426 31.813 49.0084 32.2983 49.4251 32.9233C49.8417 33.5483 50.0714 34.2822 50.114 35.125H47.2589C47.1784 34.5805 46.9653 34.1425 46.6197 33.8111C46.2788 33.4749 45.8313 33.3068 45.2773 33.3068C44.8086 33.3068 44.399 33.4347 44.0487 33.6903C43.703 33.9413 43.4331 34.3082 43.239 34.7912C43.0449 35.2741 42.9478 35.8589 42.9478 36.5455C42.9478 37.2415 43.0425 37.8333 43.2319 38.321C43.426 38.8087 43.6983 39.1804 44.0487 39.4361C44.399 39.6918 44.8086 39.8196 45.2773 39.8196C45.623 39.8196 45.9331 39.7486 46.2077 39.6065C46.4871 39.4645 46.7167 39.2585 46.8967 38.9886C47.0813 38.714 47.2021 38.3849 47.2589 38.0014H50.114C50.0666 38.8348 49.8394 39.5687 49.4322 40.2031C49.0297 40.8329 48.4734 41.3253 47.7631 41.6804C47.0529 42.0355 46.2125 42.2131 45.2418 42.2131ZM55.1619 42.206C54.4659 42.206 53.8456 42.0852 53.3011 41.8438C52.7566 41.5975 52.3258 41.2353 52.0085 40.7571C51.696 40.2741 51.5398 39.6728 51.5398 38.9531C51.5398 38.3471 51.651 37.8381 51.8736 37.4261C52.0961 37.0142 52.3991 36.6828 52.7827 36.4318C53.1662 36.1809 53.6018 35.9915 54.0895 35.8636C54.5819 35.7358 55.098 35.6458 55.6378 35.5938C56.2723 35.5275 56.7836 35.4659 57.1719 35.4091C57.5601 35.3475 57.8419 35.2576 58.017 35.1392C58.1922 35.0208 58.2798 34.8456 58.2798 34.6136V34.571C58.2798 34.1212 58.1378 33.7732 57.8537 33.527C57.5743 33.2808 57.1766 33.1577 56.6605 33.1577C56.116 33.1577 55.6828 33.2784 55.3608 33.5199C55.0388 33.7566 54.8258 34.0549 54.7216 34.4148L51.9233 34.1875C52.0653 33.5246 52.3447 32.9517 52.7614 32.4688C53.178 31.9811 53.7154 31.607 54.3736 31.3466C55.0365 31.0814 55.8035 30.9489 56.6747 30.9489C57.2808 30.9489 57.8608 31.0199 58.4148 31.1619C58.9735 31.304 59.4683 31.5241 59.8991 31.8224C60.3348 32.1207 60.678 32.5043 60.929 32.973C61.1799 33.437 61.3054 33.9934 61.3054 34.642V42H58.4361V40.4872H58.3509C58.1757 40.8281 57.9413 41.1288 57.6477 41.3892C57.3542 41.6449 57.0014 41.8461 56.5895 41.9929C56.1776 42.1349 55.7017 42.206 55.1619 42.206ZM56.0284 40.1179C56.4735 40.1179 56.8665 40.0303 57.2074 39.8551C57.5483 39.6752 57.8158 39.4337 58.0099 39.1307C58.2041 38.8277 58.3011 38.4844 58.3011 38.1009V36.9432C58.2064 37.0047 58.0762 37.0616 57.9105 37.1136C57.7495 37.161 57.5672 37.206 57.3636 37.2486C57.16 37.2865 56.9564 37.322 56.7528 37.3551C56.5492 37.3835 56.3646 37.4096 56.1989 37.4332C55.8438 37.4853 55.5336 37.5682 55.2685 37.6818C55.0033 37.7955 54.7973 37.9493 54.6506 38.1435C54.5038 38.3329 54.4304 38.5696 54.4304 38.8537C54.4304 39.2656 54.5795 39.5805 54.8778 39.7983C55.1809 40.0114 55.5644 40.1179 56.0284 40.1179ZM66.6783 35.6932V42H63.6527V31.0909H66.5362V33.0156H66.6641C66.9055 32.3812 67.3104 31.8793 67.8786 31.5099C68.4467 31.1359 69.1357 30.9489 69.9453 30.9489C70.7029 30.9489 71.3634 31.1146 71.9268 31.446C72.4903 31.7775 72.9283 32.2509 73.2408 32.8665C73.5533 33.4773 73.7095 34.2064 73.7095 35.054V42H70.6839V35.5938C70.6887 34.9261 70.5182 34.4053 70.1726 34.0312C69.8269 33.6525 69.3511 33.4631 68.745 33.4631C68.3378 33.4631 67.978 33.5507 67.6655 33.7259C67.3577 33.901 67.1162 34.1567 66.9411 34.4929C66.7706 34.8243 66.683 35.2244 66.6783 35.6932ZM83.8551 27.4545V42H80.7798V27.4545H83.8551ZM91.5415 42H86.3853V27.4545H91.5842C93.0472 27.4545 94.3067 27.7457 95.3626 28.3281C96.4184 28.9058 97.2305 29.7367 97.7987 30.821C98.3716 31.9053 98.658 33.2027 98.658 34.7131C98.658 36.2282 98.3716 37.5303 97.7987 38.6193C97.2305 39.7083 96.4137 40.544 95.3484 41.1264C94.2878 41.7088 93.0188 42 91.5415 42ZM89.4606 39.3651H91.4137C92.3228 39.3651 93.0875 39.2041 93.7077 38.8821C94.3327 38.5554 94.8015 38.0511 95.114 37.3693C95.4312 36.6828 95.5898 35.7973 95.5898 34.7131C95.5898 33.6383 95.4312 32.7599 95.114 32.0781C94.8015 31.3963 94.3351 30.8944 93.7148 30.5724C93.0946 30.2505 92.3299 30.0895 91.4208 30.0895H89.4606V39.3651ZM105.565 42V27.4545H111.389C112.459 27.4545 113.351 27.6132 114.066 27.9304C114.781 28.2476 115.319 28.688 115.679 29.2514C116.038 29.8101 116.218 30.4541 116.218 31.1832C116.218 31.7514 116.105 32.2509 115.877 32.6818C115.65 33.108 115.338 33.4583 114.94 33.733C114.547 34.0028 114.097 34.1946 113.591 34.3082V34.4503C114.145 34.474 114.663 34.6302 115.146 34.919C115.634 35.2079 116.029 35.6127 116.332 36.1335C116.635 36.6496 116.787 37.2652 116.787 37.9801C116.787 38.7519 116.595 39.4408 116.211 40.0469C115.833 40.6482 115.271 41.1241 114.528 41.4744C113.785 41.8248 112.868 42 111.779 42H105.565ZM108.64 39.4858H111.147C112.004 39.4858 112.629 39.3224 113.022 38.9957C113.415 38.6643 113.612 38.224 113.612 37.6747C113.612 37.2723 113.515 36.9171 113.321 36.6094C113.127 36.3016 112.85 36.0601 112.49 35.8849C112.135 35.7098 111.711 35.6222 111.218 35.6222H108.64V39.4858ZM108.64 33.5412H110.92C111.342 33.5412 111.716 33.4678 112.042 33.321C112.374 33.1695 112.634 32.9564 112.824 32.6818C113.018 32.4072 113.115 32.0781 113.115 31.6946C113.115 31.169 112.928 30.7453 112.554 30.4233C112.184 30.1013 111.659 29.9403 110.977 29.9403H108.64V33.5412ZM121.842 42.206C121.146 42.206 120.525 42.0852 119.981 41.8438C119.436 41.5975 119.005 41.2353 118.688 40.7571C118.376 40.2741 118.219 39.6728 118.219 38.9531C118.219 38.3471 118.331 37.8381 118.553 37.4261C118.776 37.0142 119.079 36.6828 119.462 36.4318C119.846 36.1809 120.281 35.9915 120.769 35.8636C121.262 35.7358 121.778 35.6458 122.317 35.5938C122.952 35.5275 123.463 35.4659 123.852 35.4091C124.24 35.3475 124.522 35.2576 124.697 35.1392C124.872 35.0208 124.96 34.8456 124.96 34.6136V34.571C124.96 34.1212 124.817 33.7732 124.533 33.527C124.254 33.2808 123.856 33.1577 123.34 33.1577C122.796 33.1577 122.362 33.2784 122.04 33.5199C121.719 33.7566 121.505 34.0549 121.401 34.4148L118.603 34.1875C118.745 33.5246 119.024 32.9517 119.441 32.4688C119.858 31.9811 120.395 31.607 121.053 31.3466C121.716 31.0814 122.483 30.9489 123.354 30.9489C123.96 30.9489 124.54 31.0199 125.094 31.1619C125.653 31.304 126.148 31.5241 126.579 31.8224C127.014 32.1207 127.358 32.5043 127.609 32.973C127.86 33.437 127.985 33.9934 127.985 34.642V42H125.116V40.4872H125.031C124.855 40.8281 124.621 41.1288 124.327 41.3892C124.034 41.6449 123.681 41.8461 123.269 41.9929C122.857 42.1349 122.381 42.206 121.842 42.206ZM122.708 40.1179C123.153 40.1179 123.546 40.0303 123.887 39.8551C124.228 39.6752 124.496 39.4337 124.69 39.1307C124.884 38.8277 124.981 38.4844 124.981 38.1009V36.9432C124.886 37.0047 124.756 37.0616 124.59 37.1136C124.429 37.161 124.247 37.206 124.043 37.2486C123.84 37.2865 123.636 37.322 123.433 37.3551C123.229 37.3835 123.044 37.4096 122.879 37.4332C122.523 37.4853 122.213 37.5682 121.948 37.6818C121.683 37.7955 121.477 37.9493 121.33 38.1435C121.183 38.3329 121.11 38.5696 121.11 38.8537C121.11 39.2656 121.259 39.5805 121.558 39.7983C121.861 40.0114 122.244 40.1179 122.708 40.1179ZM130.332 42V31.0909H133.266V32.9943H133.379C133.578 32.3172 133.912 31.8059 134.381 31.4602C134.849 31.1098 135.389 30.9347 136 30.9347C136.152 30.9347 136.315 30.9441 136.49 30.9631C136.665 30.982 136.819 31.008 136.952 31.0412V33.7259C136.81 33.6832 136.613 33.6454 136.362 33.6122C136.111 33.5791 135.882 33.5625 135.673 33.5625C135.228 33.5625 134.83 33.6596 134.48 33.8537C134.134 34.0431 133.86 34.3082 133.656 34.6491C133.457 34.9901 133.358 35.383 133.358 35.8281V42H130.332ZM142.937 42.2131C141.82 42.2131 140.859 41.9763 140.054 41.5028C139.253 41.0246 138.638 40.3617 138.207 39.5142C137.781 38.6667 137.568 37.6913 137.568 36.5881C137.568 35.4706 137.783 34.4905 138.214 33.6477C138.65 32.8002 139.268 32.1397 140.068 31.6662C140.868 31.188 141.82 30.9489 142.923 30.9489C143.875 30.9489 144.708 31.1217 145.423 31.4673C146.138 31.813 146.704 32.2983 147.12 32.9233C147.537 33.5483 147.767 34.2822 147.809 35.125H144.954C144.874 34.5805 144.661 34.1425 144.315 33.8111C143.974 33.4749 143.527 33.3068 142.973 33.3068C142.504 33.3068 142.094 33.4347 141.744 33.6903C141.398 33.9413 141.128 34.3082 140.934 34.7912C140.74 35.2741 140.643 35.8589 140.643 36.5455C140.643 37.2415 140.738 37.8333 140.927 38.321C141.121 38.8087 141.394 39.1804 141.744 39.4361C142.094 39.6918 142.504 39.8196 142.973 39.8196C143.318 39.8196 143.628 39.7486 143.903 39.6065C144.182 39.4645 144.412 39.2585 144.592 38.9886C144.777 38.714 144.897 38.3849 144.954 38.0014H147.809C147.762 38.8348 147.535 39.5687 147.127 40.2031C146.725 40.8329 146.169 41.3253 145.458 41.6804C144.748 42.0355 143.908 42.2131 142.937 42.2131ZM154.675 42.2131C153.572 42.2131 152.618 41.9787 151.813 41.5099C151.013 41.0365 150.395 40.3783 149.96 39.5355C149.524 38.688 149.306 37.7055 149.306 36.5881C149.306 35.4612 149.524 34.4763 149.96 33.6335C150.395 32.786 151.013 32.1278 151.813 31.6591C152.618 31.1856 153.572 30.9489 154.675 30.9489C155.779 30.9489 156.73 31.1856 157.531 31.6591C158.335 32.1278 158.956 32.786 159.391 33.6335C159.827 34.4763 160.045 35.4612 160.045 36.5881C160.045 37.7055 159.827 38.688 159.391 39.5355C158.956 40.3783 158.335 41.0365 157.531 41.5099C156.73 41.9787 155.779 42.2131 154.675 42.2131ZM154.69 39.8693C155.192 39.8693 155.611 39.7273 155.947 39.4432C156.283 39.1544 156.536 38.7614 156.707 38.2642C156.882 37.767 156.969 37.2012 156.969 36.5668C156.969 35.9323 156.882 35.3665 156.707 34.8693C156.536 34.3722 156.283 33.9792 155.947 33.6903C155.611 33.4015 155.192 33.2571 154.69 33.2571C154.183 33.2571 153.757 33.4015 153.411 33.6903C153.07 33.9792 152.812 34.3722 152.637 34.8693C152.467 35.3665 152.381 35.9323 152.381 36.5668C152.381 37.2012 152.467 37.767 152.637 38.2642C152.812 38.7614 153.07 39.1544 153.411 39.4432C153.757 39.7273 154.183 39.8693 154.69 39.8693ZM166.032 42.1776C165.203 42.1776 164.453 41.9645 163.781 41.5384C163.113 41.1075 162.583 40.4754 162.19 39.642C161.801 38.804 161.607 37.7765 161.607 36.5597C161.607 35.3097 161.808 34.2704 162.211 33.4418C162.613 32.6084 163.148 31.9858 163.816 31.5739C164.488 31.1572 165.225 30.9489 166.025 30.9489C166.636 30.9489 167.145 31.053 167.552 31.2614C167.964 31.465 168.295 31.7206 168.546 32.0284C168.802 32.3314 168.996 32.6297 169.129 32.9233H169.221V27.4545H172.239V42H169.256V40.2528H169.129C168.987 40.5559 168.785 40.8565 168.525 41.1548C168.269 41.4484 167.935 41.6922 167.523 41.8864C167.116 42.0805 166.619 42.1776 166.032 42.1776ZM166.991 39.7699C167.478 39.7699 167.89 39.6373 168.227 39.3722C168.567 39.1023 168.828 38.7259 169.008 38.2429C169.192 37.7599 169.285 37.1941 169.285 36.5455C169.285 35.8968 169.195 35.3333 169.015 34.8551C168.835 34.3769 168.575 34.0076 168.234 33.7472C167.893 33.4867 167.478 33.3565 166.991 33.3565C166.494 33.3565 166.075 33.4915 165.734 33.7614C165.393 34.0312 165.135 34.4053 164.96 34.8835C164.784 35.3617 164.697 35.9157 164.697 36.5455C164.697 37.1799 164.784 37.741 164.96 38.2287C165.139 38.7116 165.397 39.0904 165.734 39.3651C166.075 39.6349 166.494 39.7699 166.991 39.7699ZM179.699 42.2131C178.576 42.2131 177.61 41.9858 176.801 41.5312C175.996 41.072 175.376 40.4233 174.94 39.5852C174.504 38.7424 174.287 37.7457 174.287 36.5952C174.287 35.473 174.504 34.4882 174.94 33.6406C175.376 32.7931 175.989 32.1326 176.779 31.6591C177.575 31.1856 178.508 30.9489 179.578 30.9489C180.297 30.9489 180.967 31.0649 181.588 31.2969C182.213 31.5241 182.757 31.8674 183.221 32.3267C183.69 32.786 184.055 33.3636 184.315 34.0597C184.575 34.7509 184.706 35.5606 184.706 36.4886V37.3196H175.494V35.4446H181.858C181.858 35.009 181.763 34.6231 181.574 34.2869C181.384 33.9508 181.121 33.688 180.785 33.4986C180.454 33.3045 180.068 33.2074 179.627 33.2074C179.168 33.2074 178.761 33.3139 178.406 33.527C178.056 33.7353 177.781 34.017 177.582 34.3722C177.383 34.7225 177.281 35.1132 177.277 35.544V37.3267C177.277 37.8665 177.376 38.3329 177.575 38.7259C177.779 39.1188 178.065 39.4219 178.434 39.6349C178.804 39.848 179.242 39.9545 179.748 39.9545C180.084 39.9545 180.392 39.9072 180.672 39.8125C180.951 39.7178 181.19 39.5758 181.389 39.3864C181.588 39.197 181.739 38.965 181.843 38.6903L184.642 38.875C184.5 39.5473 184.208 40.1345 183.768 40.6364C183.333 41.1335 182.769 41.5218 182.078 41.8011C181.391 42.0758 180.598 42.2131 179.699 42.2131Z" fill="white"/>
<rect x="309" y="17" width="69" height="36" rx="7" stroke="white" stroke-width="4"/>
<rect x="317" y="25" width="4" height="20" fill="white"/>
<rect x="333" y="25" width="5" height="20" fill="white"/>
<rect x="366" y="25" width="5" height="20" fill="white"/>
<rect x="351" y="25" width="4" height="20" fill="white"/>
<rect x="343" y="25" width="3" height="20" fill="white"/>
<rect x="360" y="25" width="1" height="20" fill="white"/>
<rect x="326" y="25" width="2" height="20" fill="white"/>
<defs>
<filter id="filter0_i_370_16" x="0" y="0" width="402" height="70" filterUnits="userSpaceOnUse" color-interpolation-filters="sRGB">
<feFlood flood-opacity="0" result="BackgroundImageFix"/>
<feBlend mode="normal" in="SourceGraphic" in2="BackgroundImageFix" result="shape"/>
<feColorMatrix in="SourceAlpha" type="matrix" values="0 0 0 0 0 0 0 0 0 0 0 0 0 0 0 0 0 0 127 0" result="hardAlpha"/>
<feOffset/>
<feGaussianBlur stdDeviation="13.6"/>
<feComposite in2="hardAlpha" operator="arithmetic" k2="-1" k3="1"/>
<feColorMatrix type="matrix" values="0 0 0 0 1 0 0 0 0 1 0 0 0 0 1 0 0 0 0.62 0"/>
<feBlend mode="normal" in2="shape" result="effect1_innerShadow_370_16"/>
</filter>
<filter id="filter1_i_370_16" x="0" y="0" width="402" height="70" filterUnits="userSpaceOnUse" color-interpolation-filters="sRGB">
<feFlood flood-opacity="0" result="BackgroundImageFix"/>
<feBlend mode="normal" in="SourceGraphic" in2="BackgroundImageFix" result="shape"/>
<feColorMatrix in="SourceAlpha" type="matrix" values="0 0 0 0 0 0 0 0 0 0 0 0 0 0 0 0 0 0 127 0" result="hardAlpha"/>
<feOffset/>
<feGaussianBlur stdDeviation="6.8"/>
<feComposite in2="hardAlpha" operator="arithmetic" k2="-1" k3="1"/>
<feColorMatrix type="matrix" values="0 0 0 0 0 0 0 0 0 0 0 0 0 0 0 0 0 0 0.25 0"/>
<feBlend mode="normal" in2="shape" result="effect1_innerShadow_370_16"/>
</filter>
</defs>
</svg>
